<svg xmlns="http://www.w3.org/2000/svg" viewBox="0 0 24 24" fill="none" stroke="currentColor" stroke-width="2" stroke-linecap="round" stroke-linejoin="round" class="lucide lucide-cloud-sun">
  <path d="M12 2v2" />
  <path d="m4.93 4.93 1.41 1.41" />
  <path d="M20 12h2" />
  <path d="m19.07 4.93-1.41 1.41" />
  <path d="M15.9 8.2c-.4-.5-.9-.9-1.5-1.1s-1.3-.2-1.9 0-1.1.6-1.5 1.1c-.4.5-.6 1.1-.6 1.8 0 .4.1.7.2 1-.7.2-1.2.6-1.6 1.2s-.5 1.3-.3 2c.2.7.6 1.2 1.2 1.6s1.3.5 2 .3c.5-.1.9-.4 1.3-.8.4.4.8.7 1.3.8.7.2 1.4.1 2-.3s1-.9 1.2-1.6c.2-.7.1-1.4-.3-2s-.9-1-1.6-1.2c.1-.3.2-.6.2-1 0-.7-.2-1.3-.6-1.8z" />
  <path d="M2 12h2" />
  <path d="m6.34 17.66-1.41 1.41" />
  <path d="m19.07 19.07-1.41-1.41" />
</svg>
